<mxfile host="app.diagrams.net" modified="2023-11-22T19:03:33.190Z" agent="Mozilla/5.0 (Windows NT 10.0; Win64; x64) AppleWebKit/537.36 (KHTML, like Gecko) Chrome/119.0.0.0 Safari/537.36 Edg/119.0.0.0" etag="tah6Gkaqe3SpdsVTKWgH" version="22.1.3" type="device">
  <diagram name="Page-1" id="oit_1julGFqI6oK9F4lP">
    <mxGraphModel dx="1426" dy="803" grid="1" gridSize="10" guides="1" tooltips="1" connect="1" arrows="1" fold="1" page="1" pageScale="1" pageWidth="850" pageHeight="1100" math="0" shadow="0">
      <root>
        <mxCell id="0" />
        <mxCell id="1" parent="0" />
        <mxCell id="qeGmMF54fT7G0q_B0uXI-1" value="logo 1" style="rounded=0;whiteSpace=wrap;html=1;" parent="1" vertex="1">
          <mxGeometry x="380" y="410" width="120" height="60" as="geometry" />
        </mxCell>
        <mxCell id="qeGmMF54fT7G0q_B0uXI-7" value="" style="shape=flexArrow;endArrow=classic;html=1;rounded=0;" parent="1" edge="1">
          <mxGeometry width="50" height="50" relative="1" as="geometry">
            <mxPoint x="510" y="440.5" as="sourcePoint" />
            <mxPoint x="530" y="440" as="targetPoint" />
          </mxGeometry>
        </mxCell>
        <mxCell id="qeGmMF54fT7G0q_B0uXI-8" value="" style="shape=flexArrow;endArrow=classic;html=1;rounded=0;" parent="1" edge="1">
          <mxGeometry width="50" height="50" relative="1" as="geometry">
            <mxPoint x="370" y="439.5" as="sourcePoint" />
            <mxPoint x="350" y="439.5" as="targetPoint" />
          </mxGeometry>
        </mxCell>
        <mxCell id="qeGmMF54fT7G0q_B0uXI-10" value=". . ." style="text;strokeColor=none;fillColor=none;html=1;fontSize=24;fontStyle=1;verticalAlign=middle;align=center;" parent="1" vertex="1">
          <mxGeometry x="390" y="450" width="100" height="40" as="geometry" />
        </mxCell>
        <mxCell id="nhzYDoBwdJy0DEIcJuxc-1" value="" style="sketch=0;html=1;aspect=fixed;strokeColor=none;shadow=0;fillColor=#3B8DF1;verticalAlign=top;labelPosition=center;verticalLabelPosition=bottom;shape=mxgraph.gcp2.phone_android" vertex="1" parent="1">
          <mxGeometry x="320" y="130" width="252" height="450" as="geometry" />
        </mxCell>
      </root>
    </mxGraphModel>
  </diagram>
</mxfile>
